<?xml version="1.0" encoding="UTF-8" standalone="no"?>
<!-- Created with Inkscape (http://www.inkscape.org/) -->

<svg
   version="1.1"
   id="svg1"
   width="300"
   height="300"
   viewBox="0 0 300 300"
   sodipodi:docname="WAY.svg"
   inkscape:version="1.3 (0e150ed6c4, 2023-07-21)"
   xmlns:inkscape="http://www.inkscape.org/namespaces/inkscape"
   xmlns:sodipodi="http://sodipodi.sourceforge.net/DTD/sodipodi-0.dtd"
   xmlns="http://www.w3.org/2000/svg"
   xmlns:svg="http://www.w3.org/2000/svg">
  <defs
     id="defs1" />
  <sodipodi:namedview
     id="namedview1"
     pagecolor="#ffffff"
     bordercolor="#000000"
     borderopacity="0.25"
     inkscape:showpageshadow="2"
     inkscape:pageopacity="0.0"
     inkscape:pagecheckerboard="0"
     inkscape:deskcolor="#d1d1d1"
     inkscape:zoom="1.3052464"
     inkscape:cx="396.47686"
     inkscape:cy="268.53167"
     inkscape:window-width="1920"
     inkscape:window-height="1017"
     inkscape:window-x="-8"
     inkscape:window-y="-8"
     inkscape:window-maximized="1"
     inkscape:current-layer="g1" />
  <g
     inkscape:groupmode="layer"
     inkscape:label="Image"
     id="g1">
    <path
       style="fill:#0000ff;stroke-width:0.469857"
       d="M 0.14171978,137.46423 C 0.24656922,136.94827 0.69004513,133.67522 1.1272516,130.19081 3.9446603,107.73769 12.356504,85.867794 25.910312,65.75744 31.526432,57.424621 36.457787,51.587804 45.073256,43.075966 57.232431,31.06305 69.318695,22.521854 84.924274,14.913862 106.05013,4.6146655 127.01447,-0.12601165 150.86598,0.00249682 214.09119,0.34316662 269.46139,39.371156 291.57491,99.182095 c 3.37132,9.118475 6.35572,21.655975 7.8864,33.130795 0.81418,6.10357 0.68108,31.09018 -0.19768,37.09766 -1.55006,10.59745 -4.27387,21.70725 -7.70352,31.42088 -15.80935,44.77607 -54.17116,80.50396 -100.48388,93.58468 -13.51018,3.81585 -22.95018,5.25756 -36.23023,5.53321 -16.35591,0.33944 -28.56821,-1.0091 -42.80234,-4.72647 C 91.447315,289.84394 72.268305,280.08494 55.365609,266.38298 49.195529,261.38129 38.100949,250.29777 32.735513,243.77544 22.078118,230.82013 12.701111,213.34787 7.0784674,195.96845 1.9079107,179.98645 0.24849619,169.3542 0.07292911,151.0824 0.00603633,144.1084 0.03688006,137.98023 0.14135978,137.46423 Z M 49.537327,144.2978 c 0.938269,3.1262 3.397788,6.77651 6.487935,9.62914 6.742736,6.22448 16.240289,7.41664 25.027993,3.14158 3.899106,-1.89687 8.71388,-6.32004 35.099225,-32.2447 l 14.47949,-14.2267 0.19522,15.20485 c 0.10734,8.36265 0.1783,39.38192 0.15761,68.93168 l -0.0376,53.72684 1.7289,3.3395 c 2.24188,4.33031 6.36658,8.49157 10.69255,10.78733 l 3.34978,1.77767 6.56715,0.0364 6.56716,0.0364 3.31332,-1.63289 c 4.04211,-1.99204 8.82737,-6.78111 11.07882,-11.08764 l 1.52817,-2.92304 0.65981,-59.87094 c 0.36296,-32.92902 0.69425,-62.40489 0.73632,-65.50187 l 0.0764,-5.63092 10.40263,10.4028 c 26.83012,26.83052 29.91937,29.6364 34.26423,31.12125 4.03643,1.37947 9.45008,1.55546 13.23393,0.43028 6.05746,-1.80128 12.19477,-6.7948 14.58159,-11.8641 1.65414,-3.51315 2.24919,-6.86163 2.09206,-11.77241 -0.17937,-5.60535 -1.31717,-7.97289 -6.86854,-14.29202 -5.18286,-5.89966 -71.21981,-73.491916 -77.04838,-78.863022 -2.32212,-2.139891 -5.34696,-4.639683 -6.72183,-5.55508 l -2.49978,-1.664399 -7.43004,-0.04115 c -5.33298,-0.02954 -7.8792,0.143408 -9.02141,0.612699 -0.87524,0.359627 -3.57712,2.404744 -6.00415,4.54472 -6.24336,5.504925 -60.74062,59.077118 -73.949788,72.694546 -12.265737,12.64479 -12.673814,13.25883 -13.412919,20.18134 -0.458861,4.29763 -0.256497,7.47149 0.674034,10.57191 z"
       id="path11" />
  </g>
</svg>
