<?xml version="1.0" encoding="UTF-8" standalone="no"?>
<!-- Created with Inkscape (http://www.inkscape.org/) -->

<svg
   version="1.1"
   id="svg1"
   width="200"
   height="200"
   viewBox="0 0 200 200"
   sodipodi:docname="INF.svg"
   inkscape:version="1.3 (0e150ed6c4, 2023-07-21)"
   xmlns:inkscape="http://www.inkscape.org/namespaces/inkscape"
   xmlns:sodipodi="http://sodipodi.sourceforge.net/DTD/sodipodi-0.dtd"
   xmlns="http://www.w3.org/2000/svg"
   xmlns:svg="http://www.w3.org/2000/svg">
  <defs
     id="defs1" />
  <sodipodi:namedview
     id="namedview1"
     pagecolor="#ffffff"
     bordercolor="#000000"
     borderopacity="0.25"
     inkscape:showpageshadow="2"
     inkscape:pageopacity="0.0"
     inkscape:pagecheckerboard="0"
     inkscape:deskcolor="#d1d1d1"
     inkscape:zoom="1.3683333"
     inkscape:cx="410.35323"
     inkscape:cy="300"
     inkscape:window-width="1920"
     inkscape:window-height="1017"
     inkscape:window-x="-8"
     inkscape:window-y="-8"
     inkscape:window-maximized="1"
     inkscape:current-layer="g1" />
  <g
     inkscape:groupmode="layer"
     inkscape:label="Image"
     id="g1">
    <path
       style="fill:#000000;stroke-width:0.348372"
       d="m 89.587453,199.70188 c -5.916473,-0.55391 -10.108988,-1.3177 -15.746465,-2.86868 -6.67828,-1.83733 -12.125898,-3.91787 -18.551165,-7.08502 -4.687594,-2.31062 -13.013155,-7.36006 -14.673424,-8.89942 -0.483261,-0.44806 -1.953712,-1.58214 -3.267666,-2.52017 -2.190411,-1.56372 -11.436592,-10.44503 -13.440006,-12.90963 -1.279525,-1.57407 -3.597433,-4.47576 -3.89393,-4.87464 -3.764936,-5.06502 -7.600736,-11.37984 -10.3137165,-16.97932 -1.1755624,-2.42631 -2.1373859,-4.55788 -2.1373859,-4.73682 0,-0.17894 -0.323595,-1.09009 -0.7190993,-2.02477 C 5.4573245,133.52493 4.8129417,131.72376 4.4290287,130.0515 4.2750365,129.38073 3.9861352,128.36152 3.7870212,127.78659 0.99097221,119.71298 -0.57292307,104.65408 0.19480886,93.196811 0.59909369,87.163466 0.98530194,84.262916 1.8403134,80.838488 2.114729,79.739414 2.3392512,78.473732 2.3392512,78.025865 c 0,-0.44787 0.2163965,-1.508647 0.4808856,-2.357285 0.2644857,-0.848638 0.7368069,-2.405385 1.0496013,-3.45944 0.914086,-3.080297 1.9073223,-6.13223 2.3427379,-7.198572 0.4157925,-1.018283 1.1813476,-2.896142 1.6820617,-4.125986 0.7590698,-1.864409 4.6343073,-9.624619 4.9997603,-10.012083 0.228956,-0.242746 0.770947,-1.146962 1.204426,-2.00937 0.930891,-1.852022 1.377658,-2.556817 3.907055,-6.163567 C 27.452439,29.229264 40.471891,17.964867 55.106128,10.600439 59.270855,8.5046119 64.875304,6.1771696 67.81894,5.3210013 69.255661,4.9031248 71.261545,4.2580334 72.276455,3.8874642 77.367202,2.0287086 91.193781,0.04420493 99.339747,0.00311874 c 6.634783,-0.03346494 9.413173,0.18911768 16.428613,1.31612796 6.67455,1.0722467 8.72178,1.5508801 14.65257,3.4257085 7.00292,2.2137455 16.56356,6.4717888 20.43935,9.1031148 0.7025,0.476941 1.34708,0.867164 1.4324,0.867164 0.14091,0 4.07269,2.559597 5.88773,3.832927 6.22441,4.366698 13.94619,11.583969 18.82667,17.596618 1.08892,1.341525 2.31261,2.83114 2.71931,3.310256 3.26499,3.846304 9.62136,14.814901 12.41857,21.429547 0.40521,0.958232 0.86806,1.982589 1.02855,2.276348 0.16048,0.293763 0.40214,1.036772 0.53702,1.651134 0.13488,0.614363 0.38991,1.206474 0.56673,1.315806 0.17683,0.109333 0.3215,0.518637 0.3215,0.909568 0,0.39093 0.21079,1.204884 0.46842,1.808786 1.06438,2.494971 2.77239,9.471627 4.03186,16.468834 0.77123,4.284686 1.1317,14.811462 0.74354,21.713412 -0.20408,3.62878 -0.44687,6.80463 -0.53955,7.05744 -0.0927,0.25281 -0.32661,1.47886 -0.51987,2.72457 -0.79419,5.11917 -2.00154,10.15084 -3.59522,14.98326 -0.78495,2.38013 -1.14694,3.34985 -2.01612,5.40094 -0.16243,0.38329 -0.60769,1.51213 -0.98946,2.50853 -1.79111,4.67465 -7.32551,14.64333 -10.21436,18.39835 -0.14744,0.19164 -1.0817,1.44605 -2.07613,2.78758 -2.56852,3.46502 -3.57888,4.57981 -9.47615,10.45556 -6.56248,6.53855 -11.44545,10.35404 -19.52813,15.25906 -2.87821,1.74666 -10.57976,5.50958 -14.106,6.8921 -4.12762,1.61829 -10.51671,3.5423 -15.08817,4.54364 -7.31311,1.60188 -23.693092,2.45 -32.105967,1.66238 z m 0.87074,-42.24798 c 4.45255,-1.17592 9.015557,-2.95385 13.593577,-5.29658 11.71579,-5.99538 24.01614,-16.72215 24.02111,-20.94808 0.001,-1.25916 -1.3183,-2.55153 -2.60563,-2.55153 -0.73266,0 -2.66913,1.23239 -4.18484,2.66329 -3.08063,2.90824 -8.73546,7.84253 -10.44889,9.11748 -5.32579,3.96286 -9.22985,4.26961 -9.22985,0.7252 0,-1.68129 0.91986,-4.09451 4.70055,-12.33175 2.84496,-6.19851 7.18999,-15.85928 13.27594,-29.517788 2.8784,-6.459918 3.96617,-10.116872 3.96617,-13.333803 0,-5.832544 -3.0205,-9.366782 -9.26337,-10.838919 -3.19697,-0.753874 -10.5281,-0.50796 -14.96137,0.501863 -9.138502,2.081596 -17.452124,6.407379 -25.773359,13.410513 -4.200661,3.535266 -8.784873,8.329714 -9.076707,9.492973 -0.56354,2.246301 1.307748,4.011391 3.489155,3.291151 1.124749,-0.37137 4.099077,-2.868226 8.565666,-7.190632 3.308176,-3.201383 6.87225,-5.957386 9.055701,-7.002528 2.329433,-1.11502 4.899891,-1.273654 5.814983,-0.35887 1.282929,1.282497 0.787857,2.667484 -5.820667,16.28356 -10.501615,21.63733 -11.4925,23.71514 -13.210631,27.70161 -3.405968,7.90266 -5.140731,14.65032 -4.774682,18.57195 0.427339,4.57827 2.992185,7.08624 8.761148,8.56689 0.383126,0.0983 2.969225,0.12007 5.746887,0.0483 3.974896,-0.10269 5.754867,-0.31654 8.359109,-1.00432 z M 125.25233,67.188291 c 4.57175,-1.590358 8.0662,-4.487229 9.79815,-8.122593 0.96611,-2.027848 1.32443,-6.317511 0.69561,-8.327466 -1.09097,-3.487215 -3.9411,-6.286071 -7.98353,-7.839919 -2.71837,-1.044897 -8.42705,-1.300752 -11.5348,-0.516974 -5.18344,1.307272 -9.39424,4.34425 -11.49806,8.292803 -1.57137,2.949235 -1.84292,6.734672 -0.70048,9.764769 1.33865,3.550485 4.73538,6.249215 9.33734,7.418588 3.05432,0.776112 8.63405,0.461955 11.88577,-0.669208 z"
       id="path1" />
    <path
       style="fill:#00ffff;stroke-width:0.730816"
       d="M 86.967113,199.10355 C 73.409686,197.42556 56.604756,190.9584 43.91169,182.53424 36.197252,177.41431 22.785075,164.16023 18.032939,156.96054 9.649846,144.2598 3.9697316,130.28757 1.8325352,117.11 1.2159557,113.30828 0.73540845,105.65017 0.73375491,99.599605 0.72918153,82.86486 3.650399,70.379269 11.012063,55.669045 16.148219,45.405875 21.239637,38.367252 29.598051,29.974875 52.508884,6.9709498 84.619893,-3.5093361 115.83901,1.8278369 c 24.57627,4.2015235 44.77185,15.6809621 60.42708,34.3475591 9.78056,11.661918 16.54503,24.91717 20.48708,40.145276 1.82053,7.03268 2.25233,10.377347 2.56838,19.894129 0.68842,20.729479 -3.11248,36.694729 -12.76133,53.602499 -14.08712,24.685 -40.37452,43.45097 -67.4404,48.14413 -8.0604,1.39765 -25.175993,2.00563 -32.152707,1.14212 z m 7.673569,-42.55317 c 12.577208,-4.35694 28.092918,-14.91492 32.574188,-22.16577 1.31303,-2.12453 1.45181,-2.89273 0.78643,-4.35309 -1.27306,-2.79407 -3.34426,-2.14439 -9.06463,2.84335 -8.79591,7.66939 -12.17167,9.99967 -14.48595,9.99967 -1.84355,0 -2.13643,-0.27554 -2.13619,-2.00974 1.5e-4,-1.10536 3.48041,-9.73813 7.7339,-19.18392 4.25349,-9.4458 9.04915,-20.40393 10.65703,-24.351409 4.63814,-11.387064 3.88612,-17.716662 -2.51102,-21.134726 -6.34327,-3.389276 -21.025763,-1.698343 -31.574304,3.636307 -9.773415,4.942656 -22.308321,15.821291 -22.308321,19.360663 0,2.286675 1.875235,3.574425 4.019488,2.760235 0.803898,-0.30525 4.419793,-3.226956 8.035323,-6.492681 6.908536,-6.240139 9.946451,-8.126748 13.086088,-8.126748 1.434307,0 1.899296,0.370853 1.899296,1.514807 0,0.833137 -4.577174,11.110238 -10.171491,22.838002 -11.039146,23.14211 -13.160757,28.55502 -13.768859,35.12881 -0.504903,5.45816 0.997172,8.53641 5.222652,10.70293 2.627262,1.34706 3.878192,1.49459 9.947905,1.17314 4.649116,-0.2462 8.632801,-0.95313 12.058465,-2.13983 z M 129.03452,65.750706 c 4.38222,-2.7108 6.5648,-5.809628 7.23375,-10.270483 0.73567,-4.905838 -1.72453,-9.480871 -6.38914,-11.881366 -4.41454,-2.271801 -11.75,-2.545873 -16.72768,-0.624988 -4.31123,1.6637 -9.10648,6.73653 -9.78455,10.350936 -1.15263,6.144081 0.95373,10.627103 6.29829,13.404779 2.79282,1.451485 4.12124,1.655503 9.5171,1.461632 5.49121,-0.197296 6.7166,-0.50084 9.85223,-2.44051 z"
       id="path2" />
  </g>
</svg>
